<svg viewBox="0 0 72 72" xmlns="http://www.w3.org/2000/svg"><circle cx="36" cy="36" fill="#fcea2b" r="28" stroke="#fcea2b" stroke-linecap="round" stroke-linejoin="round" stroke-width="2"/><path d="m29 62c20.0033 0 16.6634-52 16.6634-52s24.9582 7 16.6388 35-48.9011 17-33.3022 17z" fill="#f1b31c" opacity=".4" stroke-miterlimit="10" stroke-width=".204"/><circle cx="26.5" cy="27.5" fill="#fff" r="5"/><circle cx="45.5" cy="27.5" fill="#fff" r="5"/><g stroke="#000" stroke-linecap="round" stroke-linejoin="round"><path d="m34 37h4v2h-4z" stroke-width=".25"/><path d="m36 64a28 28 0 0 1 0-56" fill="none" stroke-width="2"/><path d="m36 8a28 28 0 0 1 0 56" fill="none" stroke-width="2"/><path d="m36 39.5c1.1046 0 2.5-.8954 2.5-2h-4.5a2 2 0 0 0 2 2z" fill="none" stroke-width="2"/><path d="m26.92 45.92s3.705 3.389 9.652 3.771c6.942.3136 10.42-3.695 10.42-3.695" fill="none" stroke-width="2"/><circle cx="26.5" cy="27.5" fill="none" r="5" stroke-width="2"/><circle cx="45.5" cy="27.5" fill="none" r="5" stroke-width="2"/><circle cx="45.5" cy="27.5" fill="none" r="5"/><circle cx="43.45" cy="27.75" r="1.75" stroke-width="2"/><circle cx="26.5" cy="27.5" fill="none" r="5"/><circle cx="24.25" cy="27.75" r="1.75" stroke-width="2"/></g></svg>